HIERARCHY
ROOT joint_Root
{
	OFFSET 0.0 0.0 0.0
	CHANNELS 6 Xposition Yposition Zposition Zrotation Xrotation Yrotation 
	JOINT Hips
	{
		OFFSET 4.5925 91.4895 -427.239
		CHANNELS 6 Xposition Yposition Zposition Zrotation Xrotation Yrotation 
		JOINT Spine
		{
			OFFSET 15.7357 0.0 0.0
			CHANNELS 6 Xposition Yposition Zposition Zrotation Xrotation Yrotation 
			JOINT Chest
			{
				OFFSET 8.98455 -0.406207 0.0
				CHANNELS 6 Xposition Yposition Zposition Zrotation Xrotation Yrotation 
				JOINT Neck
				{
					OFFSET 16.3773 0.0 0.0
					CHANNELS 6 Xposition Yposition Zposition Zrotation Xrotation Yrotation 
					JOINT Head
					{
						OFFSET 6.45672 0.0 0.0
						CHANNELS 6 Xposition Yposition Zposition Zrotation Xrotation Yrotation 
						End Site
						{
							OFFSET 0.0 0.0 0.0
						}
					}
				}
				JOINT Shoulder_L
				{
					OFFSET 12.9942 -0.242716 4.98039
					CHANNELS 6 Xposition Yposition Zposition Zrotation Xrotation Yrotation 
					JOINT UpperArm_L
					{
						OFFSET 5.34809 0.0 0.0
						CHANNELS 6 Xposition Yposition Zposition Zrotation Xrotation Yrotation 
						JOINT LowerArm_L
						{
							OFFSET 24.3286 1.87007e-05 0.0
							CHANNELS 6 Xposition Yposition Zposition Zrotation Xrotation Yrotation 
							JOINT Hand_L
							{
								OFFSET 22.2916 0.0 0.0
								CHANNELS 6 Xposition Yposition Zposition Zrotation Xrotation Yrotation 
								End Site
								{
									OFFSET 0.0 0.0 0.0
								}
							}
						}
					}
				}
				JOINT Shoulder_R
				{
					OFFSET 12.9945 -0.242716 -4.98039
					CHANNELS 6 Xposition Yposition Zposition Zrotation Xrotation Yrotation 
					JOINT UpperArm_R
					{
						OFFSET -5.34813 0.0 0.0
						CHANNELS 6 Xposition Yposition Zposition Zrotation Xrotation Yrotation 
						JOINT LowerArm_R
						{
							OFFSET -24.3289 0.000322201 0.0
							CHANNELS 6 Xposition Yposition Zposition Zrotation Xrotation Yrotation 
							JOINT Hand_R
							{
								OFFSET -22.2915 -0.000108084 0.0
								CHANNELS 6 Xposition Yposition Zposition Zrotation Xrotation Yrotation 
								End Site
								{
									OFFSET 0.0 0.0 0.0
								}
							}
						}
					}
				}
			}
		}
		JOINT UpperLeg_L
		{
			OFFSET -2.19248 -6.46944 0.0
			CHANNELS 6 Xposition Yposition Zposition Zrotation Xrotation Yrotation 
			JOINT LowerLeg_L
			{
				OFFSET 39.0811 0.0 -1.23785e-05
				CHANNELS 6 Xposition Yposition Zposition Zrotation Xrotation Yrotation 
				JOINT Foot_L
				{
					OFFSET 40.9854 0.0 -1.26872e-05
					CHANNELS 6 Xposition Yposition Zposition Zrotation Xrotation Yrotation 
					JOINT Toes_L
					{
						OFFSET 11.7543 0.0 0.0
						CHANNELS 6 Xposition Yposition Zposition Zrotation Xrotation Yrotation 
						End Site
						{
							OFFSET 0.0 0.0 0.0
						}
					}
				}
			}
		}
		JOINT UpperLeg_R
		{
			OFFSET -2.19251 6.46944 0.0
			CHANNELS 6 Xposition Yposition Zposition Zrotation Xrotation Yrotation 
			JOINT LowerLeg_R
			{
				OFFSET -39.0811 -0.00228153 -0.0401928
				CHANNELS 6 Xposition Yposition Zposition Zrotation Xrotation Yrotation 
				JOINT Foot_R
				{
					OFFSET -40.9854 0.0 0.0
					CHANNELS 6 Xposition Yposition Zposition Zrotation Xrotation Yrotation 
					JOINT Toes_R
					{
						OFFSET -11.7543 0.0 0.0
						CHANNELS 6 Xposition Yposition Zposition Zrotation Xrotation Yrotation 
						End Site
						{
							OFFSET 0.0 0.0 0.0
						}
					}
				}
			}
		}
	}
}
MOTION
Frames:	6
Frame Time:	0.0333333
0.000000 0.000000 0.000000 0.000000 0.000000 -0.000000 -0.117917 82.343200 1.389270 89.622200 -4.319490 14.989600 15.735700 0.000005 -0.000001 91.619300 80.228600 -91.522000 8.984550 -0.406207 -0.000000 11.768900 0.550988 0.137685 16.377300 -0.000001 -0.000001 -3.826800 -2.061090 1.513040 6.456720 -0.000001 -0.000000 -5.581990 -1.932580 3.508830 12.994200 -0.242716 4.980390 -91.182900 3.227830 -69.861300 5.348090 -0.000007 -0.000001 -71.252200 22.528700 1.545760 24.328600 0.000019 0.000005 7.716080 22.650000 -19.392400 22.291600 -0.000001 0.000005 6.326510 5.367550 -1.907300 12.994500 -0.242716 -4.980390 88.061600 9.194220 -78.039900 -5.348130 -0.000001 -0.000004 -63.312300 23.045200 -3.538770 -24.328900 0.000322 -0.000009 0.598040 2.147960 -15.738000 -22.291500 -0.000108 -0.000004 2.240330 5.370020 -1.946960 -2.192480 -6.469440 -0.000000 -174.326000 -10.057400 -8.137780 39.081100 -0.000007 -0.000012 -0.625180 0.349610 60.786800 40.985400 -0.000006 -0.000013 -0.838445 0.816765 -87.353600 11.754300 -0.000000 0.000003 -0.000374 -0.003127 -16.693100 -2.192510 6.469440 -0.000001 174.754000 11.342800 172.421000 -39.081100 -0.002282 -0.040193 0.077905 -0.041248 61.096900 -40.985400 0.000008 0.000006 6.097300 3.571680 -87.623900 -11.754300 -0.000006 -0.000006 -0.980060 -1.213020 -16.980500
0.000000 0.000000 0.000000 0.000000 0.000000 -0.000000 -0.052197 84.334100 1.890570 89.623200 -3.550680 14.110500 15.735700 0.000005 -0.000001 91.818100 81.368300 -91.677100 8.984550 -0.406207 -0.000000 9.488420 0.546673 0.236354 16.377300 -0.000001 -0.000001 -2.654090 -2.144890 1.557540 6.456720 -0.000001 -0.000000 -4.692470 -1.848030 3.230410 12.994200 -0.242716 4.980390 -90.590300 1.571300 -69.401000 5.348090 -0.000007 -0.000001 -66.122800 12.021400 -1.320910 24.328600 0.000019 0.000005 6.696760 21.588900 -17.701000 22.291600 -0.000001 0.000005 5.187530 5.305840 -0.103392 12.994500 -0.242716 -4.980390 88.408400 7.113790 -77.351500 -5.348130 -0.000001 -0.000004 -59.599400 16.316400 -6.255760 -24.328900 0.000322 -0.000009 1.555020 7.564410 -11.663700 -22.291500 -0.000108 -0.000004 -7.207980 5.266390 1.066610 -2.192480 -6.469440 -0.000000 -174.597000 -9.833340 -5.898620 39.081100 -0.000007 -0.000012 -0.542158 0.382196 54.819200 40.985400 -0.000006 -0.000013 -0.609535 1.221600 -84.564200 11.754300 -0.000000 0.000003 -0.000343 -0.002910 -16.685400 -2.192510 6.469440 -0.000001 174.484000 12.376700 174.863000 -39.081100 -0.002282 -0.040193 0.067136 -0.044448 55.182300 -40.985400 0.000008 0.000006 6.010210 4.270030 -84.780300 -11.754300 -0.000006 -0.000006 -0.994843 -1.227360 -17.177400
0.000000 0.000000 0.000000 0.000000 0.000000 -0.000000 0.015419 86.741800 2.154450 89.825200 -2.769090 11.904800 15.735700 0.000005 -0.000001 92.455500 83.322200 -92.394100 8.984550 -0.406207 -0.000000 5.577300 0.569672 0.094982 16.377300 -0.000001 -0.000001 0.411455 -2.149470 1.565090 6.456720 -0.000001 -0.000000 -3.308020 -2.117970 3.050380 12.994200 -0.242716 4.980390 -89.948200 -0.130229 -68.421300 5.348090 -0.000007 -0.000001 -58.380900 0.249431 -7.841340 24.328600 0.000019 0.000005 5.473370 15.808000 -19.379300 22.291600 -0.000001 0.000005 9.391420 5.276250 0.721719 12.994500 -0.242716 -4.980390 88.777400 5.029200 -76.315500 -5.348130 -0.000001 -0.000004 -53.328700 4.232130 -11.876400 -24.328900 0.000322 -0.000009 1.342380 7.925620 -9.652030 -22.291500 -0.000108 -0.000004 -8.063910 5.143790 4.089700 -2.192480 -6.469440 -0.000000 -175.184000 -10.152600 -4.191470 39.081100 -0.000007 -0.000012 -0.412134 0.387085 46.796100 40.985400 -0.000006 -0.000013 -0.258605 2.067230 -80.513000 11.754300 -0.000000 0.000003 -0.000307 -0.002650 -16.676200 -2.192510 6.469440 -0.000001 174.322000 13.795100 176.554000 -39.081100 -0.002282 -0.040193 0.052272 -0.044868 47.529700 -40.985400 0.000008 0.000006 5.885410 5.366230 -80.635400 -11.754300 -0.000006 -0.000006 -0.996390 -1.220500 -17.579100
0.000000 0.000000 0.000000 0.000000 0.000000 -0.000000 0.169982 88.762500 2.134140 90.063000 -2.203020 9.184880 15.735700 0.000005 -0.000001 93.415000 85.465100 -93.425400 8.984550 -0.406207 -0.000000 1.287790 0.540606 -0.026838 16.377300 -0.000001 -0.000001 4.128700 -2.167860 1.502770 6.456720 -0.000001 -0.000000 -1.406580 -2.189530 2.874610 12.994200 -0.242716 4.980390 -89.538400 -1.117850 -67.558800 5.348090 -0.000007 -0.000001 -49.775100 -10.051300 -18.737200 24.328600 0.000019 0.000005 6.188810 14.742000 -23.085100 22.291600 -0.000001 0.000005 12.648100 5.281230 0.598283 12.994500 -0.242716 -4.980390 89.193700 3.098420 -75.404900 -5.348130 -0.000001 -0.000004 -46.263900 -7.725950 -21.231300 -24.328900 0.000322 -0.000009 1.148860 5.916050 -11.045600 -22.291500 -0.000108 -0.000004 -2.356830 5.185280 3.135020 -2.192480 -6.469440 -0.000000 -175.971000 -10.672100 -3.279200 39.081100 -0.000007 -0.000012 -0.304585 0.376014 39.009400 40.985400 -0.000006 -0.000013 0.023736 2.851580 -76.428600 11.754300 -0.000000 0.000003 -0.000232 -0.002100 -16.656400 -2.192510 6.469440 -0.000001 174.393000 15.150500 177.263000 -39.081100 -0.002282 -0.040193 0.038032 -0.040975 40.303600 -40.985400 0.000008 0.000006 5.656150 6.531740 -76.498900 -11.754300 -0.000006 -0.000006 -1.051660 -1.280910 -17.922300
0.000000 0.000000 0.000000 0.000000 0.000000 -0.000000 0.300689 89.965000 1.946660 90.153500 -1.544100 7.428390 15.735700 0.000005 -0.000001 91.303800 86.723300 -91.311100 8.984550 -0.406207 -0.000000 -1.214370 0.149652 -0.013028 16.377300 -0.000001 -0.000001 6.128670 -2.340140 1.417200 6.456720 -0.000001 -0.000000 0.250544 -1.867590 2.221500 12.994200 -0.242716 4.980390 -89.226800 -1.990620 -68.761600 5.348090 -0.000007 -0.000001 -41.232800 -20.889200 -29.726600 24.328600 0.000019 0.000005 5.649990 9.990680 -29.719100 22.291600 -0.000001 0.000005 16.354000 5.347120 -1.243340 12.994500 -0.242716 -4.980390 89.657300 1.322150 -75.477400 -5.348130 -0.000001 -0.000004 -41.317200 -20.478400 -32.847600 -24.328900 0.000322 -0.000009 -1.142240 -3.052830 -20.126200 -22.291500 -0.000108 -0.000004 8.215780 5.390590 -2.304440 -2.192480 -6.469440 -0.000000 -176.532000 -10.668400 -2.705310 39.081100 -0.000007 -0.000012 -0.230322 0.345237 33.709300 40.985400 -0.000006 -0.000013 0.185203 3.393450 -73.535400 11.754300 -0.000000 0.000003 -0.000182 -0.001708 -16.642200 -2.192510 6.469440 -0.000001 174.477000 16.494300 178.148000 -39.081100 -0.002282 -0.040193 0.030509 -0.039050 34.876400 -40.985400 0.000008 0.000006 5.530570 7.445910 -74.124800 -11.754300 -0.000006 -0.000006 -0.636316 -0.777979 -17.832900
0.000000 0.000000 0.000000 0.000000 0.000000 -0.000000 0.384798 90.506500 1.731920 90.211100 -0.995697 6.500440 15.735700 0.000005 -0.000001 84.931500 87.213900 -84.896200 8.984550 -0.406207 -0.000000 -2.215530 -0.495219 0.061053 16.377300 -0.000001 -0.000001 5.888240 -2.281900 1.346630 6.456720 -0.000001 -0.000000 0.740510 -1.593320 1.665980 12.994200 -0.242716 4.980390 -88.537300 -3.967310 -69.742400 5.348090 -0.000007 -0.000001 -33.594200 -31.701000 -38.475500 24.328600 0.000019 0.000005 5.959830 7.012750 -40.504300 22.291600 -0.000001 0.000005 22.797500 5.401870 -2.995200 12.994500 -0.242716 -4.980390 90.276700 -1.117460 -76.083800 -5.348130 -0.000001 -0.000004 -35.717400 -30.408600 -43.201600 -24.328900 0.000322 -0.000009 -6.088540 -8.173500 -36.954600 -22.291500 -0.000108 -0.000004 17.881200 5.573840 -9.750290 -2.192480 -6.469440 -0.000000 -176.851000 -10.541300 -2.592310 39.081100 -0.000007 -0.000012 -0.196566 0.325694 31.112500 40.985400 -0.000006 -0.000013 0.307557 3.827550 -72.031000 11.754300 -0.000000 0.000003 -0.000157 -0.001511 -16.634900 -2.192510 6.469440 -0.000001 174.469000 17.561900 178.956000 -39.081100 -0.002282 -0.040193 0.026110 -0.037233 31.494200 -40.985400 0.000008 0.000006 5.481410 8.069150 -73.438300 -11.754300 -0.000006 -0.000006 -0.054810 -0.080921 -17.287700
